<?xml version="1.0" encoding="UTF-8" standalone="no"?>
<!-- Generator: Adobe Illustrator 14.0.0, SVG Export Plug-In . SVG Version: 6.00 Build 43363)  -->

<svg
   version="1.1"
   id="Layer_1"
   x="0px"
   y="0px"
   width="215.999px"
   height="136.167px"
   viewBox="0 0 215.999 136.167"
   enable-background="new 0 0 215.999 136.167"
   xml:space="preserve"
   sodipodi:docname="fleuron-dark.svg"
   inkscape:version="1.3.2 (091e20ef0f, 2023-11-25)"
   xmlns:inkscape="http://www.inkscape.org/namespaces/inkscape"
   xmlns:sodipodi="http://sodipodi.sourceforge.net/DTD/sodipodi-0.dtd"
   xmlns="http://www.w3.org/2000/svg"
   xmlns:svg="http://www.w3.org/2000/svg"><defs
   id="defs2" /><sodipodi:namedview
   id="namedview2"
   pagecolor="#ffffff"
   bordercolor="#000000"
   borderopacity="0.25"
   inkscape:showpageshadow="2"
   inkscape:pageopacity="0.0"
   inkscape:pagecheckerboard="0"
   inkscape:deskcolor="#d1d1d1"
   inkscape:zoom="3.3456782"
   inkscape:cx="107.90039"
   inkscape:cy="57.238021"
   inkscape:window-width="1920"
   inkscape:window-height="1063"
   inkscape:window-x="0"
   inkscape:window-y="17"
   inkscape:window-maximized="1"
   inkscape:current-layer="Layer_1" />
<g
   id="g1">
	<path
   d="M148.984,44.925c0.889,3.552,1.555,8.214,1.998,13.986l0.223,3.108l1.332,9.768c0.59,3.701,2.182,6.92,4.772,9.657   c2.587,2.74,5.661,4.107,9.214,4.107c4.141,0,7.359-1.183,9.656-3.552c2.293-2.366,3.441-5.55,3.441-9.546   c0-1.183-0.445-3.032-1.332-5.55l-0.223-0.888c1.775-2.81,4.068-4.218,6.883-4.218c2.07,0,3.809,0.593,5.217,1.776   c1.404,1.187,2.109,2.813,2.109,4.884c0,2.664-0.744,4.96-2.221,6.882c-1.48,1.925-3.629,4.072-6.438,6.438l-0.445,0.444   c-4.293,3.701-8.918,7.142-13.875,10.323c-4.959,3.185-10.211,6.032-15.762,8.547c-5.55,2.519-11.138,4.517-16.761,5.994   c-5.626,1.481-11.101,2.22-16.428,2.22c-4.589,0-9.29-0.59-14.097-1.776c-4.811-1.183-9.289-3.032-13.431-5.55   c-4.145-2.515-7.475-5.661-9.99-9.435c-2.519-3.774-3.774-8.176-3.774-13.209c0-4.44,1.293-8.065,3.885-10.878   c2.588-2.81,6.105-5.328,10.545-7.548c-1.925-3.847-4.922-6.771-8.991-8.769c-4.072-1.998-8.474-3.07-13.209-3.219   c0,3.851-0.888,7.548-2.664,11.1c-1.776,3.552-4.145,6.771-7.104,9.657c-2.962,2.886-6.254,5.439-9.879,7.659   c-3.628,2.22-7.292,4.072-10.989,5.55c1.183,6.365,4.957,9.546,11.322,9.546c3.698,0,6.882-1.256,9.546-3.774v1.776   c0,0.742,0.073,1.852,0.222,3.33c0.146,1.63,0.222,2.813,0.222,3.552c0,3.257-1.37,5.921-4.107,7.992   c-2.74,2.074-5.81,3.108-9.213,3.108c-5.477,0-10.028-1.922-13.653-5.772c-3.628-3.847-5.588-8.509-5.883-13.986   c-1.332-0.146-3.035-0.666-5.106-1.554c1.034-3.996,2.737-7.177,5.106-9.546c0.295-4.142,1.478-8.103,3.552-11.877   c2.071-3.774,4.773-7.139,8.103-10.101c3.33-2.959,6.993-5.439,10.989-7.437s8.065-3.292,12.21-3.885   c-1.037-2.22-2.664-3.809-4.884-4.773c-2.22-0.96-5.328-1.811-9.324-2.553c-5.477-1.034-9.546-2.404-12.21-4.107   c-2.664-1.7-3.996-4.919-3.996-9.657c0-4.291,1.478-7.583,4.44-9.879c2.959-2.293,6.584-3.441,10.878-3.441h2.22   c-2.22,1.776-3.33,4.072-3.33,6.882c0,2.519,0.888,4.811,2.664,6.882c1.776,2.075,4.069,3.923,6.882,5.55l0.222,0.222   c3.996,2.519,6.993,4.773,8.991,6.771c1.998,1.998,3.586,4.7,4.773,8.103l2.664-0.222c3.847,0,7.881,0.999,12.099,2.997   c4.218,1.998,7.881,4.405,10.989,7.215l0.444-0.444c-2.518-5.03-3.774-9.619-3.774-13.764c0-5.772,2.255-10.545,6.771-14.319   c4.513-3.774,9.657-5.661,15.429-5.661c5.18,0,10.323,1.297,15.43,3.885c5.105,2.591,9.213,5.959,12.32,10.101   C146.32,37.749,148.097,41.374,148.984,44.925z M48.197,71.232c2.958-1.405,5.807-3.108,8.547-5.106   c2.737-1.998,4.957-4.218,6.66-6.66c1.7-2.442,2.553-4.995,2.553-7.659c0-0.739-0.149-1.7-0.444-2.886   c-3.108,0-6.182,0.704-9.213,2.109c-3.035,1.409-5.81,3.295-8.325,5.661c-2.519,2.369-4.478,5.106-5.883,8.214   c-1.408,3.108-2.109,6.292-2.109,9.546C42.498,73.712,45.234,72.641,48.197,71.232z"
   id="path1" />
</g>
<g
   id="g2">
</g>
<path
   style="fill:#eaf2ef;stroke-width:0.211349"
   d="M 117.40454,109.13935 C 103.94086,108.1092 93.216713,103.74602 86.228497,96.455185 81.077883,91.081532 79.047773,85.819974 79.301403,78.501829 c 0.08591,-2.478669 0.193144,-3.211918 0.677914,-4.635246 0.820927,-2.410316 1.665136,-3.765932 3.601908,-5.783876 2.095036,-2.182839 4.500588,-4.007261 7.583135,-5.751208 1.29674,-0.733629 2.393636,-1.359202 2.437548,-1.39016 0.04391,-0.03096 -0.375832,-0.797072 -0.93276,-1.702472 -1.330489,-2.162972 -4.166302,-4.944128 -6.34626,-6.223941 -3.829516,-2.248237 -8.488803,-3.68009 -13.327373,-4.095656 l -1.716467,-0.147422 -0.148984,1.662879 c -0.302354,3.374727 -1.003275,5.979199 -2.451916,9.110797 -3.857224,8.338356 -13.090389,16.435193 -24.897419,21.833284 -1.514293,0.692324 -2.85415,1.258771 -2.977461,1.258771 -0.360094,0 -0.262426,0.762597 0.320048,2.498927 0.896831,2.673423 2.083437,4.330192 3.990984,5.57232 1.92193,1.251492 3.758135,1.73225 6.66628,1.745381 3.553894,0.01604 5.715414,-0.638416 8.373806,-2.535405 l 1.348263,-0.9621 0.0018,1.859984 c 9.95e-4,1.022992 0.09702,2.935625 0.213389,4.250296 0.383216,4.329357 -0.305085,6.515868 -2.840254,9.022548 -2.819026,2.78736 -5.466123,3.90771 -9.619676,4.07138 -1.632542,0.0643 -3.193982,0.004 -4.121311,-0.15983 C 36.918662,106.55117 30.669791,99.543119 29.36626,90.314794 l -0.244062,-1.727831 -1.087581,-0.256238 c -0.598169,-0.140932 -1.721988,-0.489132 -2.497375,-0.773779 l -1.409795,-0.517542 0.313098,-1.091327 c 0.518189,-1.806189 2.51351,-5.654945 3.655365,-7.050801 0.992403,-1.21316 1.088023,-1.43145 1.29612,-2.95889 0.920032,-6.753086 4.115999,-12.835014 9.707592,-18.473557 6.344913,-6.398186 14.523113,-10.968334 22.69669,-12.683377 1.23339,-0.258799 2.242528,-0.538514 2.242528,-0.621587 0,-0.08307 -0.385253,-0.727965 -0.856121,-1.433092 C 61.273438,39.8676 58.29865,38.566206 49.561413,36.767788 40.426575,34.887532 36.318467,32.800381 34.743702,29.239558 c -0.586548,-1.32629 -1.142403,-4.256361 -1.131788,-5.965981 0.03393,-5.464351 2.520172,-9.331668 7.495526,-11.659181 2.181685,-1.02061 4.269457,-1.487008 7.291552,-1.6288963 l 2.430517,-0.1141133 -0.879091,0.9073526 c -2.951168,3.046048 -3.017468,8.435776 -0.150684,12.249444 1.503267,1.999787 3.468995,3.646206 7.896326,6.613665 6.323298,4.238249 8.668377,6.19055 10.471895,8.717952 0.867842,1.216174 2.341524,4.034897 2.805759,5.366603 l 0.215784,0.618998 2.097794,-0.115596 c 6.375028,-0.351283 14.880918,3.03433 22.098447,8.795881 1.287556,1.027821 1.715334,1.266705 1.93776,1.082108 0.234365,-0.194505 0.123018,-0.603537 -0.622286,-2.285962 -5.124412,-11.567689 -3.359548,-20.701902 5.227247,-27.054104 4.64204,-3.434012 10.21302,-4.968628 16.24744,-4.475614 10.21115,0.834254 20.70453,6.857795 26.16312,15.018471 4.06852,6.082502 5.46176,11.044321 6.46434,23.021824 0.36251,4.330782 1.44388,12.711811 1.89661,14.699374 0.79344,3.483428 2.21247,6.022244 4.85049,8.67814 2.07122,2.085263 3.93983,3.186247 6.20282,3.654703 1.5674,0.324461 4.73315,0.282449 6.48859,-0.08611 7.38739,-1.551002 11.15007,-9.041938 8.58775,-17.096946 l -0.66549,-2.092077 0.83068,-1.100232 c 2.59396,-3.435669 7.60199,-4.070904 10.98297,-1.393115 1.28189,1.015276 1.99241,2.562519 2.09767,4.567952 0.23074,4.396226 -1.54723,7.318523 -7.83928,12.884767 -15.31645,13.549648 -34.80849,23.595445 -52.45988,27.036745 -4.03655,0.78696 -11.09476,1.30447 -14.37175,1.05374 z M 44.383355,73.026366 c 6.118218,-2.443299 12.00768,-6.044317 15.700857,-9.600041 4.703942,-4.528867 6.468127,-8.668942 5.763068,-13.524397 l -0.165383,-1.138927 -1.740692,0.133798 c -8.245552,0.633805 -17.478408,7.04001 -21.428733,14.868304 -1.497571,2.967712 -2.567453,6.940658 -2.567453,9.534094 v 1.268358 l 1.215259,-0.369684 c 0.668392,-0.203326 2.118777,-0.730503 3.223077,-1.171505 z"
   id="path2" /><path
   style="fill:#eaf2ef;stroke-width:0.211349"
   d="m 117.40454,109.13935 c -9.66533,-0.73952 -18.009089,-3.22494 -24.611054,-7.33107 -4.788501,-2.978228 -9.109432,-7.4994 -11.208585,-11.728009 -1.784124,-3.594008 -2.435614,-6.883664 -2.282283,-11.524244 0.08415,-2.546867 0.185973,-3.253387 0.675824,-4.689444 0.822588,-2.411527 1.666688,-3.766635 3.602783,-5.783876 2.095036,-2.182839 4.500588,-4.007261 7.583135,-5.751208 1.29674,-0.733629 2.393636,-1.359202 2.437548,-1.39016 0.169817,-0.11973 -1.900789,-3.196462 -2.909212,-4.322823 -3.694293,-4.12635 -10.49741,-7.088003 -17.68671,-7.69969 l -1.705995,-0.14515 -0.245262,2.246218 c -0.312721,2.863997 -0.90071,5.157048 -1.941307,7.570735 -3.254475,7.548821 -10.04255,14.363519 -19.966193,20.044504 -2.336088,1.33734 -6.302357,3.276984 -7.786349,3.807798 -0.7889,0.282183 -0.800837,0.302614 -0.66553,1.139228 0.428752,2.651009 2.30849,5.708519 4.346081,7.069171 2.020649,1.349337 3.78143,1.802624 6.950499,1.789298 3.723262,-0.01565 5.67866,-0.700623 9.035183,-3.164987 l 0.475536,-0.349139 0.0033,1.76941 c 0.0018,0.973175 0.0969,2.898641 0.211244,4.278809 0.370328,4.46996 -0.291937,6.595719 -2.839647,9.114809 -1.702087,1.68297 -3.206867,2.63548 -5.441106,3.44417 -1.448465,0.52428 -1.786087,0.56117 -5.143168,0.56193 -3.5125,8.1e-4 -3.637889,-0.0147 -5.600757,-0.6925 C 37.737218,105.692 33.895293,102.23741 31.4735,97.315195 30.418371,95.170682 29.533971,92.143258 29.271519,89.777504 29.13914,88.584237 29.127736,88.567367 28.359252,88.428069 27.931235,88.350479 26.803446,88.008063 25.853054,87.667133 l -1.727985,-0.619871 0.30807,-1.095258 c 0.496425,-1.764896 2.508219,-5.637213 3.665159,-7.054728 0.98921,-1.21201 1.085788,-1.432898 1.293687,-2.95889 0.92343,-6.778024 4.108499,-12.837799 9.706543,-18.467253 3.986678,-4.009045 7.913449,-6.815829 12.999031,-9.291469 3.591588,-1.74837 5.792819,-2.532267 9.225121,-3.28522 1.435742,-0.314963 2.645772,-0.602065 2.688955,-0.638002 0.183244,-0.1525 -1.089542,-2.003898 -1.983541,-2.885267 -1.990181,-1.96207 -4.892481,-3.033395 -12.466726,-4.60184 -9.24748,-1.91493 -13.2281,-3.935383 -14.812743,-7.518543 C 34.468136,28.616556 34.095961,27.279427 33.92157,26.279393 32.966026,20.7999 34.493882,16.135562 38.1471,13.379415 41.173847,11.095906 44.864818,9.9362744 49.112749,9.9342219 l 1.664875,-8.044e-4 -0.854388,0.9269025 c -1.569047,1.702214 -2.183025,3.343623 -2.183088,5.836275 -6e-5,2.262561 0.553149,4.122316 1.732409,5.823956 1.695072,2.445945 3.468901,3.951112 9.071156,7.697248 7.058898,4.720169 9.350041,6.966948 11.375401,11.155134 0.461323,0.953959 0.935874,2.01302 1.054555,2.35347 l 0.215784,0.618998 2.097794,-0.115596 c 6.279192,-0.346002 13.951041,2.628051 21.482456,8.327846 3.0121,2.279565 3.186009,2.194125 1.841888,-0.904897 -4.25418,-9.808503 -3.585424,-17.906739 1.974529,-23.91036 3.18412,-3.438214 7.6986,-6.028822 12.26655,-7.039094 5.83553,-1.290618 13.36077,-0.10671 19.86683,3.125551 7.6188,3.785076 12.81756,8.942134 16.24902,16.118694 2.04029,4.267066 2.92325,8.457527 3.81717,18.115838 0.64615,6.981431 1.67155,14.363761 2.26013,16.271717 0.93692,3.037179 2.64117,5.717735 5.05766,7.955038 1.66209,1.538837 3.3731,2.479413 5.48083,3.012916 1.69566,0.429197 5.82917,0.298681 7.60858,-0.240241 6.83014,-2.068613 10.05129,-9.195179 7.63019,-16.881243 l -0.659,-2.092077 0.83068,-1.100232 c 1.62134,-2.147444 3.9882,-3.208286 6.70042,-3.003163 3.74551,0.283273 6.15623,2.551351 6.37756,6.000209 0.28779,4.484432 -1.49035,7.448349 -7.83662,13.062558 -16.66829,14.745547 -38.35304,25.352065 -56.58119,27.675175 -2.50785,0.31962 -8.38759,0.55784 -10.25044,0.41531 z M 42.90391,73.58443 c 6.891517,-2.495197 14.045254,-6.850852 17.989159,-10.952958 4.088615,-4.252623 5.601783,-8.131669 4.954186,-12.700198 L 65.689969,48.82169 h -0.903554 c -1.25625,0 -4.337368,0.559512 -5.893275,1.07018 -5.521061,1.812086 -11.602836,6.439302 -14.821546,11.276724 -2.492543,3.746061 -4.126575,8.566013 -4.126575,12.172279 v 1.224063 l 0.898235,-0.279816 c 0.494029,-0.153898 1.421324,-0.469208 2.060656,-0.70069 z"
   id="path3" /><path
   style="fill:#eaf2ef;stroke-width:0.211349"
   d=""
   id="path4" /><path
   style="fill:#eaf2ef;stroke-width:0.211349"
   d="m 115.9251,108.91745 c -5.68656,-0.6768 -9.18113,-1.41438 -13.52636,-2.85496 C 90.727517,102.1931 82.581794,94.747876 80.047707,85.633547 c -0.39059,-1.404831 -0.452611,-2.202752 -0.462859,-5.954858 -0.01315,-4.816219 0.07705,-5.292343 1.54166,-8.136948 1.480789,-2.876037 5.793049,-6.652499 10.968953,-9.606059 0.842755,-0.480908 1.532283,-0.995142 1.532283,-1.142744 0,-0.336523 -1.685826,-2.871922 -2.793738,-4.201648 -2.52908,-3.035418 -8.122754,-5.962701 -13.61109,-7.122958 -1.826732,-0.386177 -5.804371,-0.902601 -5.94168,-0.771418 -0.02704,0.02583 -0.1934,1.147305 -0.369694,2.49217 -0.410168,3.128931 -1.14094,5.645695 -2.417382,8.325427 -3.086879,6.480511 -8.811943,12.396662 -16.913093,17.477614 -2.509095,1.573675 -8.108589,4.502547 -10.132066,5.299679 l -0.926535,0.365 0.12818,1.099972 c 0.07506,0.644161 0.482527,1.817225 0.983299,2.830867 2.195753,4.444551 5.663073,6.249316 11.348907,5.907188 2.732374,-0.164413 4.492417,-0.735439 6.704342,-2.175148 l 1.70978,-1.11287 0.165727,3.954096 c 0.191838,4.577088 0.107024,5.940374 -0.462886,7.440251 -0.881158,2.31902 -3.438599,4.8215 -6.35646,6.21984 -2.197751,1.05325 -3.35405,1.23564 -7.168138,1.13069 -3.079854,-0.0847 -3.41777,-0.13565 -5.118878,-0.77106 -3.645747,-1.36178 -7.15882,-4.08877 -9.259124,-7.187293 -1.798458,-2.65322 -3.362668,-6.709404 -3.718938,-9.643653 -0.178438,-1.469622 -0.409113,-2.005673 -0.863087,-2.005673 -0.501051,0 -4.31002,-1.301802 -4.31002,-1.47305 0,-1.001485 2.305166,-5.685229 3.822164,-7.766051 0.747638,-1.025512 1.085147,-1.72434 1.247224,-2.582433 0.609059,-3.224584 1.341439,-5.924593 2.098558,-7.73659 1.660119,-3.973132 4.270047,-7.735756 7.837413,-11.298875 3.877571,-3.872955 7.232378,-6.310402 12.047353,-8.753047 3.697617,-1.875809 6.015982,-2.752873 9.498287,-3.593312 1.656171,-0.39971 3.066841,-0.782366 3.134824,-0.850351 0.230853,-0.230853 -0.534114,-1.506686 -1.60769,-2.681351 -1.915402,-2.095754 -4.356564,-3.066454 -12.112864,-4.816547 -7.054666,-1.591777 -9.385783,-2.334881 -11.725429,-3.737786 -2.487006,-1.491262 -3.78348,-3.349024 -4.409788,-6.318931 -0.402537,-1.908795 -0.399903,-5.126773 0.0056,-6.847059 1.33092,-5.646174 6.700671,-9.355849 14.219592,-9.823559 L 50.54101,9.9294263 49.704211,10.935331 c -1.151334,1.384001 -1.672506,2.506287 -1.939229,4.175908 -0.56626,3.544639 0.606048,6.831939 3.450915,9.676806 1.41164,1.411639 2.780966,2.46355 6.799488,5.223336 7.810021,5.363662 9.59468,7.107389 11.789145,11.518758 0.520428,1.046179 1.011729,2.116135 1.091777,2.37768 0.141207,0.461361 0.227609,0.475536 2.898481,0.475536 6.937053,0 12.31163,2.203109 21.917295,8.98419 0.739539,0.522075 1.429066,0.949227 1.532283,0.949227 0.395483,0 0.150704,-1.023822 -0.856481,-3.582368 -0.574278,-1.458839 -1.304737,-3.603508 -1.623239,-4.765929 -0.52131,-1.902594 -0.580563,-2.472022 -0.593813,-5.706432 -0.01722,-4.205583 0.207832,-5.313759 1.67398,-8.242623 2.519317,-5.032737 8.234727,-9.419589 14.373847,-11.032633 1.87914,-0.493739 2.51191,-0.555731 5.70644,-0.559057 2.92893,-0.0031 4.00305,0.08369 5.8121,0.469363 11.00696,2.346569 20.13945,9.170231 24.78577,18.519553 2.29733,4.622681 3.22579,8.91196 4.2775,19.76116 0.46704,4.817875 1.30518,11.104384 1.81746,13.632031 1.20809,5.960788 5.61197,11.159592 10.57141,12.479593 1.46464,0.389827 5.56263,0.391514 7.39534,0.003 2.12889,-0.451252 3.88167,-1.441997 5.59026,-3.159863 2.64542,-2.65978 3.61861,-5.464107 3.41059,-9.82788 -0.0866,-1.815894 -0.2615,-2.909665 -0.67291,-4.207424 -0.30577,-0.964501 -0.50087,-1.92715 -0.43356,-2.13922 0.22288,-0.702219 2.1469,-2.506713 3.30437,-3.099079 0.88551,-0.453185 1.52378,-0.604317 2.86441,-0.678243 3.14432,-0.173389 5.41165,0.979587 6.59901,3.355716 0.5884,1.177482 0.65832,1.516575 0.65832,3.192467 0,2.325747 -0.49742,3.920356 -1.86634,5.98303 -2.448,3.688636 -11.12612,11.08747 -19.53875,16.658449 -13.00704,8.613465 -28.26979,14.959307 -40.7316,16.935117 -3.81948,0.60558 -11.16751,0.93037 -13.84338,0.6119 z M 42.837394,73.7213 C 50.006087,71.180551 58.093673,66.087631 61.819673,61.767767 65.15189,57.904448 66.49027,54.28123 66.016296,50.40681 l -0.180987,-1.479445 -1.295985,-0.06227 c -3.746777,-0.180042 -9.329565,1.950196 -13.669699,5.215978 -5.521101,4.154415 -8.828276,8.910238 -10.398366,14.953186 -0.536426,2.064593 -0.743252,5.572051 -0.328569,5.572051 0.108719,0 1.321336,-0.398252 2.694704,-0.885006 z"
   id="path5" /><path
   style="fill:#eaf2ef;stroke-width:0.0373616"
   d=""
   id="path6" /></svg>
